# Blender 3.3.1
# www.blender.org
mtllib CondimentBottle.mtl
o Cylinder
v -0.000456 -0.688335 -0.232663
v -0.000456 0.339415 -0.232663
v 0.044963 -0.688335 -0.228189
v 0.044963 0.339415 -0.228189
v 0.088637 -0.688335 -0.214941
v 0.088637 0.339415 -0.214941
v 0.128886 -0.688335 -0.193427
v 0.128886 0.339415 -0.193427
v 0.164165 -0.688335 -0.164475
v 0.164165 0.339415 -0.164475
v 0.193118 -0.688335 -0.129195
v 0.193118 0.339415 -0.129195
v 0.214632 -0.688335 -0.088946
v 0.214632 0.339415 -0.088946
v 0.227880 -0.688335 -0.045272
v 0.227880 0.339415 -0.045272
v 0.232354 -0.688335 0.000146
v 0.232354 0.339415 0.000146
v 0.227880 -0.688335 0.045565
v 0.227880 0.339415 0.045565
v 0.214632 -0.688335 0.089239
v 0.214632 0.339415 0.089239
v 0.193118 -0.688335 0.129488
v 0.193118 0.339415 0.129488
v 0.164165 -0.688335 0.164767
v 0.164165 0.339415 0.164767
v 0.128886 -0.688335 0.193720
v 0.128886 0.339415 0.193720
v 0.088637 -0.688335 0.215234
v 0.088637 0.339415 0.215234
v 0.044963 -0.688335 0.228482
v 0.044963 0.339415 0.228482
v -0.000456 -0.688335 0.232956
v -0.000456 0.339415 0.232956
v -0.045874 -0.688335 0.228482
v -0.045874 0.339415 0.228482
v -0.089548 -0.688335 0.215234
v -0.089548 0.339415 0.215234
v -0.129797 -0.688335 0.193720
v -0.129797 0.339415 0.193720
v -0.165077 -0.688335 0.164767
v -0.165077 0.339415 0.164767
v -0.194029 -0.688335 0.129488
v -0.194029 0.339415 0.129488
v -0.215543 -0.688335 0.089239
v -0.215543 0.339415 0.089239
v -0.228791 -0.688335 0.045565
v -0.228791 0.339415 0.045565
v -0.233265 -0.688335 0.000146
v -0.233265 0.339415 0.000146
v -0.228791 -0.688335 -0.045272
v -0.228791 0.339415 -0.045272
v -0.215543 -0.688335 -0.088946
v -0.215543 0.339415 -0.088946
v -0.194029 -0.688335 -0.129195
v -0.194029 0.339415 -0.129195
v -0.165077 -0.688335 -0.164475
v -0.165077 0.339415 -0.164475
v -0.129797 -0.688335 -0.193427
v -0.129797 0.339415 -0.193427
v -0.089548 -0.688335 -0.214941
v -0.089548 0.339415 -0.214941
v -0.045874 -0.688335 -0.228189
v -0.045874 0.339415 -0.228189
v 0.000883 0.330899 -0.186986
v 0.037307 0.330899 -0.183398
v 0.072331 0.330899 -0.172774
v 0.104609 0.330899 -0.155521
v 0.132901 0.330899 -0.132302
v 0.156120 0.330899 -0.104010
v 0.173373 0.330899 -0.071732
v 0.183998 0.330899 -0.036708
v 0.187585 0.330899 -0.000284
v 0.183998 0.330899 0.036140
v 0.173373 0.330899 0.071164
v 0.156120 0.330899 0.103442
v 0.132901 0.330899 0.131734
v 0.104609 0.330899 0.154953
v 0.072331 0.330899 0.172206
v 0.037307 0.330899 0.182830
v 0.000883 0.330899 0.186418
v -0.035540 0.330899 0.182830
v -0.070564 0.330899 0.172206
v -0.102843 0.330899 0.154953
v -0.131135 0.330899 0.131734
v -0.154354 0.330899 0.103442
v -0.171607 0.330899 0.071164
v -0.182231 0.330899 0.036140
v -0.185819 0.330899 -0.000284
v -0.182231 0.330899 -0.036708
v -0.171607 0.330899 -0.071732
v -0.154354 0.330899 -0.104010
v -0.131135 0.330899 -0.132302
v -0.102843 0.330899 -0.155521
v -0.070564 0.330899 -0.172774
v -0.035540 0.330899 -0.183398
v 0.000883 0.576666 -0.000284
vn 0.0980 -0.0000 -0.9952
vn 0.2903 -0.0000 -0.9569
vn 0.4714 -0.0000 -0.8819
vn 0.6344 -0.0000 -0.7730
vn 0.7730 -0.0000 -0.6344
vn 0.8819 -0.0000 -0.4714
vn 0.9569 -0.0000 -0.2903
vn 0.9952 -0.0000 -0.0980
vn 0.9952 -0.0000 0.0980
vn 0.9569 -0.0000 0.2903
vn 0.8819 -0.0000 0.4714
vn 0.7730 -0.0000 0.6344
vn 0.6344 -0.0000 0.7730
vn 0.4714 -0.0000 0.8819
vn 0.2903 -0.0000 0.9569
vn 0.0980 -0.0000 0.9952
vn -0.0980 -0.0000 0.9952
vn -0.2903 -0.0000 0.9569
vn -0.4714 -0.0000 0.8819
vn -0.6344 -0.0000 0.7730
vn -0.7730 -0.0000 0.6344
vn -0.8819 -0.0000 0.4714
vn -0.9569 -0.0000 0.2903
vn -0.9952 -0.0000 0.0980
vn -0.9952 -0.0000 -0.0980
vn -0.9569 -0.0000 -0.2903
vn -0.8819 -0.0000 -0.4714
vn -0.7730 -0.0000 -0.6344
vn -0.6344 -0.0000 -0.7730
vn -0.4714 -0.0000 -0.8819
vn -0.0000 1.0000 -0.0000
vn -0.2903 -0.0000 -0.9569
vn -0.0980 -0.0000 -0.9952
vn -0.0000 -1.0000 -0.0000
vn 0.0782 0.6031 -0.7939
vn 0.2316 0.6031 -0.7633
vn 0.3760 0.6031 -0.7035
vn 0.5061 0.6031 -0.6166
vn 0.6166 0.6031 -0.5061
vn 0.7035 0.6031 -0.3760
vn 0.7633 0.6031 -0.2316
vn 0.7939 0.6031 -0.0782
vn 0.7939 0.6031 0.0782
vn 0.7633 0.6031 0.2316
vn 0.7035 0.6031 0.3760
vn 0.6166 0.6031 0.5061
vn 0.5061 0.6031 0.6166
vn 0.3760 0.6031 0.7035
vn 0.2316 0.6031 0.7633
vn 0.0782 0.6031 0.7939
vn -0.0782 0.6031 0.7939
vn -0.2316 0.6031 0.7633
vn -0.3760 0.6031 0.7035
vn -0.5060 0.6031 0.6166
vn -0.6166 0.6031 0.5061
vn -0.7035 0.6031 0.3760
vn -0.7633 0.6031 0.2316
vn -0.7939 0.6031 0.0782
vn -0.7939 0.6031 -0.0782
vn -0.7633 0.6031 -0.2316
vn -0.7035 0.6031 -0.3760
vn -0.6166 0.6031 -0.5061
vn -0.5060 0.6031 -0.6166
vn -0.3760 0.6031 -0.7035
vn -0.2316 0.6031 -0.7633
vn -0.0782 0.6031 -0.7939
vt 1.000000 0.500000
vt 0.000000 0.500000
vt 0.750000 0.490000
vt 1.000000 1.000000
vt 0.250000 0.490000
vt 0.000000 1.000000
vt 0.968750 0.500000
vt 0.796822 0.485388
vt 0.968750 1.000000
vt 0.296822 0.485388
vt 0.937500 0.500000
vt 0.841844 0.471731
vt 0.937500 1.000000
vt 0.341844 0.471731
vt 0.906250 0.500000
vt 0.883337 0.449553
vt 0.906250 1.000000
vt 0.383337 0.449553
vt 0.875000 0.500000
vt 0.919706 0.419706
vt 0.875000 1.000000
vt 0.419706 0.419706
vt 0.843750 0.500000
vt 0.949553 0.383337
vt 0.843750 1.000000
vt 0.449553 0.383337
vt 0.812500 0.500000
vt 0.971731 0.341844
vt 0.812500 1.000000
vt 0.471731 0.341844
vt 0.781250 0.500000
vt 0.985388 0.296822
vt 0.781250 1.000000
vt 0.485388 0.296822
vt 0.750000 0.500000
vt 0.990000 0.250000
vt 0.750000 1.000000
vt 0.490000 0.250000
vt 0.718750 0.500000
vt 0.985388 0.203178
vt 0.718750 1.000000
vt 0.485388 0.203178
vt 0.687500 0.500000
vt 0.971731 0.158156
vt 0.687500 1.000000
vt 0.471731 0.158156
vt 0.656250 0.500000
vt 0.949553 0.116663
vt 0.656250 1.000000
vt 0.449553 0.116663
vt 0.625000 0.500000
vt 0.919706 0.080294
vt 0.625000 1.000000
vt 0.419706 0.080294
vt 0.593750 0.500000
vt 0.883337 0.050447
vt 0.593750 1.000000
vt 0.383337 0.050447
vt 0.562500 0.500000
vt 0.841844 0.028269
vt 0.562500 1.000000
vt 0.341844 0.028269
vt 0.531250 0.500000
vt 0.796822 0.014612
vt 0.531250 1.000000
vt 0.296822 0.014612
vt 0.500000 0.500000
vt 0.750000 0.010000
vt 0.500000 1.000000
vt 0.250000 0.010000
vt 0.468750 0.500000
vt 0.703178 0.014612
vt 0.468750 1.000000
vt 0.203178 0.014612
vt 0.437500 0.500000
vt 0.658156 0.028269
vt 0.437500 1.000000
vt 0.158156 0.028269
vt 0.406250 0.500000
vt 0.616663 0.050447
vt 0.406250 1.000000
vt 0.116663 0.050447
vt 0.375000 0.500000
vt 0.580294 0.080294
vt 0.375000 1.000000
vt 0.080294 0.080294
vt 0.343750 0.500000
vt 0.550447 0.116663
vt 0.343750 1.000000
vt 0.050447 0.116663
vt 0.312500 0.500000
vt 0.528269 0.158156
vt 0.312500 1.000000
vt 0.028269 0.158156
vt 0.281250 0.500000
vt 0.514612 0.203178
vt 0.281250 1.000000
vt 0.014612 0.203178
vt 0.250000 0.500000
vt 0.510000 0.250000
vt 0.250000 1.000000
vt 0.010000 0.250000
vt 0.218750 0.500000
vt 0.514612 0.296822
vt 0.218750 1.000000
vt 0.014612 0.296822
vt 0.187500 0.500000
vt 0.528269 0.341844
vt 0.187500 1.000000
vt 0.028269 0.341844
vt 0.156250 0.500000
vt 0.550447 0.383337
vt 0.156250 1.000000
vt 0.050447 0.383337
vt 0.125000 0.500000
vt 0.580294 0.419706
vt 0.125000 1.000000
vt 0.080294 0.419706
vt 0.093750 0.500000
vt 0.616663 0.449553
vt 0.093750 1.000000
vt 0.116663 0.449553
vt 0.062500 0.500000
vt 0.658156 0.471731
vt 0.158156 0.471731
vt 0.062500 1.000000
vt 0.031250 0.500000
vt 0.703178 0.485388
vt 0.203178 0.485388
vt 0.031250 1.000000
vt 0.750000 0.490000
vt 0.250000 0.490000
vt 0.296822 0.485388
vt 0.796822 0.485388
vt 0.341844 0.471731
vt 0.841844 0.471731
vt 0.383337 0.449553
vt 0.883337 0.449553
vt 0.419706 0.419706
vt 0.919706 0.419706
vt 0.449553 0.383337
vt 0.949553 0.383337
vt 0.471731 0.341844
vt 0.971731 0.341844
vt 0.485388 0.296822
vt 0.985388 0.296822
vt 0.490000 0.250000
vt 0.990000 0.250000
vt 0.485388 0.203178
vt 0.985388 0.203178
vt 0.471731 0.158156
vt 0.971731 0.158156
vt 0.449553 0.116663
vt 0.949553 0.116663
vt 0.419706 0.080294
vt 0.919706 0.080294
vt 0.383337 0.050447
vt 0.883337 0.050447
vt 0.341844 0.028269
vt 0.841844 0.028269
vt 0.296822 0.014612
vt 0.796822 0.014612
vt 0.250000 0.010000
vt 0.750000 0.010000
vt 0.203178 0.014612
vt 0.703178 0.014612
vt 0.158156 0.028269
vt 0.658156 0.028269
vt 0.116663 0.050447
vt 0.616663 0.050447
vt 0.080294 0.080294
vt 0.580294 0.080294
vt 0.050447 0.116663
vt 0.550447 0.116663
vt 0.028269 0.158156
vt 0.528269 0.158156
vt 0.014612 0.203178
vt 0.514612 0.203178
vt 0.010000 0.250000
vt 0.510000 0.250000
vt 0.014612 0.296822
vt 0.514612 0.296822
vt 0.028269 0.341844
vt 0.528269 0.341844
vt 0.050447 0.383337
vt 0.550447 0.383337
vt 0.080294 0.419706
vt 0.580294 0.419706
vt 0.116663 0.449553
vt 0.616663 0.449553
vt 0.658156 0.471731
vt 0.158156 0.471731
vt 0.703178 0.485388
vt 0.203178 0.485388
vt 0.250000 0.250000
s 0
f 1/1/1 2/4/1 4/9/1 3/7/1
f 3/7/2 4/9/2 6/13/2 5/11/2
f 5/11/3 6/13/3 8/17/3 7/15/3
f 7/15/4 8/17/4 10/21/4 9/19/4
f 9/19/5 10/21/5 12/25/5 11/23/5
f 11/23/6 12/25/6 14/29/6 13/27/6
f 13/27/7 14/29/7 16/33/7 15/31/7
f 15/31/8 16/33/8 18/37/8 17/35/8
f 17/35/9 18/37/9 20/41/9 19/39/9
f 19/39/10 20/41/10 22/45/10 21/43/10
f 21/43/11 22/45/11 24/49/11 23/47/11
f 23/47/12 24/49/12 26/53/12 25/51/12
f 25/51/13 26/53/13 28/57/13 27/55/13
f 27/55/14 28/57/14 30/61/14 29/59/14
f 29/59/15 30/61/15 32/65/15 31/63/15
f 31/63/16 32/65/16 34/69/16 33/67/16
f 33/67/17 34/69/17 36/73/17 35/71/17
f 35/71/18 36/73/18 38/77/18 37/75/18
f 37/75/19 38/77/19 40/81/19 39/79/19
f 39/79/20 40/81/20 42/85/20 41/83/20
f 41/83/21 42/85/21 44/89/21 43/87/21
f 43/87/22 44/89/22 46/93/22 45/91/22
f 45/91/23 46/93/23 48/97/23 47/95/23
f 47/95/24 48/97/24 50/101/24 49/99/24
f 49/99/25 50/101/25 52/105/25 51/103/25
f 51/103/26 52/105/26 54/109/26 53/107/26
f 53/107/27 54/109/27 56/113/27 55/111/27
f 55/111/28 56/113/28 58/117/28 57/115/28
f 57/115/29 58/117/29 60/121/29 59/119/29
f 59/119/30 60/121/30 62/126/30 61/123/30
f 4/10/31 2/5/31 64/129/31 62/125/31 60/122/31 58/118/31 56/114/31 54/110/31 52/106/31 50/102/31 48/98/31 46/94/31 44/90/31 42/86/31 40/82/31 38/78/31 36/74/31 34/70/31 32/66/31 30/62/31 28/58/31 26/54/31 24/50/31 22/46/31 20/42/31 18/38/31 16/34/31 14/30/31 12/26/31 10/22/31 8/18/31 6/14/31
f 61/123/32 62/126/32 64/130/32 63/127/32
f 63/127/33 64/130/33 2/6/33 1/2/33
f 1/3/34 3/8/34 5/12/34 7/16/34 9/20/34 11/24/34 13/28/34 15/32/34 17/36/34 19/40/34 21/44/34 23/48/34 25/52/34 27/56/34 29/60/34 31/64/34 33/68/34 35/72/34 37/76/34 39/80/34 41/84/34 43/88/34 45/92/34 47/96/34 49/100/34 51/104/34 53/108/34 55/112/34 57/116/34 59/120/34 61/124/34 63/128/34
f 65/132/35 97/195/35 66/133/35
f 66/133/36 97/195/36 67/135/36
f 67/135/37 97/195/37 68/137/37
f 68/137/38 97/195/38 69/139/38
f 69/139/39 97/195/39 70/141/39
f 70/141/40 97/195/40 71/143/40
f 71/143/41 97/195/41 72/145/41
f 72/145/42 97/195/42 73/147/42
f 73/147/43 97/195/43 74/149/43
f 74/149/44 97/195/44 75/151/44
f 75/151/45 97/195/45 76/153/45
f 76/153/46 97/195/46 77/155/46
f 77/155/47 97/195/47 78/157/47
f 78/157/48 97/195/48 79/159/48
f 79/159/49 97/195/49 80/161/49
f 80/161/50 97/195/50 81/163/50
f 81/163/51 97/195/51 82/165/51
f 82/165/52 97/195/52 83/167/52
f 83/167/53 97/195/53 84/169/53
f 84/169/54 97/195/54 85/171/54
f 85/171/55 97/195/55 86/173/55
f 86/173/56 97/195/56 87/175/56
f 87/175/57 97/195/57 88/177/57
f 88/177/58 97/195/58 89/179/58
f 89/179/59 97/195/59 90/181/59
f 90/181/60 97/195/60 91/183/60
f 91/183/61 97/195/61 92/185/61
f 92/185/62 97/195/62 93/187/62
f 93/187/63 97/195/63 94/189/63
f 94/189/64 97/195/64 95/192/64
f 65/131/34 66/134/34 67/136/34 68/138/34 69/140/34 70/142/34 71/144/34 72/146/34 73/148/34 74/150/34 75/152/34 76/154/34 77/156/34 78/158/34 79/160/34 80/162/34 81/164/34 82/166/34 83/168/34 84/170/34 85/172/34 86/174/34 87/176/34 88/178/34 89/180/34 90/182/34 91/184/34 92/186/34 93/188/34 94/190/34 95/191/34 96/193/34
f 95/192/65 97/195/65 96/194/65
f 96/194/66 97/195/66 65/132/66
