# Blender 3.3.1
# www.blender.org
mtllib Station.mtl
o Cube
v 1.000000 1.000000 -1.000000
v 1.000000 -1.000000 -1.000000
v 1.000000 1.000000 1.000000
v 1.000000 -1.000000 1.000000
v -1.000000 1.000000 -1.000000
v -1.000000 -1.000000 -1.000000
v -1.000000 1.000000 1.000000
v -1.000000 -1.000000 1.000000
v -1.000000 -1.000000 1.000000
v -1.000000 1.000000 1.000000
v 1.000000 1.000000 1.000000
v 1.000000 -1.000000 1.000000
v 1.000000 -1.000000 -1.000000
v -1.000000 -1.000000 -1.000000
v 1.000000 1.000000 -1.000000
v -1.000000 1.000000 -1.000000
v 1.000000 1.000000 1.000000
v -1.000000 1.000000 1.000000
v -1.000000 -1.000000 1.000000
v -1.000000 1.000000 1.000000
v 1.000000 1.000000 1.000000
v 1.000000 -1.000000 1.000000
v 1.000000 -1.000000 -1.000000
v -1.000000 -1.000000 -1.000000
v 1.000000 1.000000 -1.000000
v -1.000000 1.000000 -1.000000
v 1.000000 1.000000 1.000000
v -1.000000 1.000000 1.000000
v -1.000000 -1.000000 1.000000
v -1.000000 1.000000 1.000000
v 1.000000 1.000000 1.000000
v 1.000000 -1.000000 1.000000
v 1.000000 -1.000000 -3.024833
v -1.000000 -1.000000 -3.024833
v 1.000000 1.000000 -3.024833
v -1.000000 1.000000 -3.024833
v -1.000000 -1.000000 3.061069
v -1.000000 1.000000 3.061069
v 1.000000 1.000000 3.061069
v 1.000000 -1.000000 3.061069
v 1.000000 1.151044 1.000000
v -1.000000 1.151044 1.000000
v 1.000000 1.151044 -1.000000
v -1.000000 1.151044 -1.000000
v -1.000000 1.151044 -1.000000
v 1.000000 1.151044 -1.000000
v 1.000000 1.151044 1.000000
v -1.000000 1.151044 1.000000
v -1.000000 1.151044 -3.024833
v 1.000000 1.151044 -3.024833
v 1.000000 1.151044 3.061069
v -1.000000 1.151044 3.061069
v 1.000000 1.000000 3.181720
v -1.000000 1.000000 3.181720
v 1.000000 1.151044 3.181720
v -1.000000 1.151044 3.181720
v 1.000000 1.000000 -1.000000
v 1.000000 1.000000 1.000000
v 1.000000 1.000000 -3.024833
v 1.000000 1.000000 -1.000000
v 1.000000 1.000000 1.000000
v 1.000000 1.000000 3.061069
v 1.000000 1.151044 -1.000000
v 1.000000 1.151044 1.000000
v 1.000000 1.151044 -3.024833
v 1.000000 1.151044 -1.000000
v 1.000000 1.151044 1.000000
v 1.000000 1.151044 3.061069
v 1.000000 1.000000 3.181720
v -1.000000 1.000000 3.181720
v 1.000000 1.151044 3.181720
v -1.000000 1.151044 3.181720
v 1.150826 1.000000 -1.000000
v 1.150826 1.000000 1.000000
v 1.150826 1.000000 -3.024833
v 1.150826 1.000000 -1.000000
v 1.150826 1.000000 1.000000
v 1.150826 1.000000 3.061069
v 1.150826 1.151044 -1.000000
v 1.150826 1.151044 1.000000
v 1.150826 1.151044 -3.024833
v 1.150826 1.151044 -1.000000
v 1.150826 1.151044 1.000000
v 1.150826 1.151044 3.061069
v 1.150826 1.000000 3.181720
v 1.150826 1.151044 3.181720
v -1.000000 1.000000 -3.279824
v 1.000000 1.000000 -3.279824
v -1.000000 1.151044 -3.279824
v 1.000000 1.151044 -3.279824
v 1.000000 1.151044 -3.279824
v 1.000000 1.000000 -3.279824
v 1.150826 1.151044 -3.279824
v 1.150826 1.000000 -3.279824
v -1.193217 1.000000 1.000000
v -1.193217 1.000000 -1.000000
v -1.193217 1.000000 -3.024833
v -1.193217 1.000000 -1.000000
v -1.193217 1.000000 3.061069
v -1.193217 1.000000 1.000000
v -1.193217 1.151044 1.000000
v -1.193217 1.151044 -1.000000
v -1.193217 1.151044 -3.024833
v -1.193217 1.151044 -1.000000
v -1.193217 1.151044 3.061069
v -1.193217 1.151044 1.000000
v -1.193217 1.000000 3.181720
v -1.193217 1.151044 3.181720
v -1.193217 1.000000 -3.279824
v -1.193217 1.151044 -3.279824
vn -0.0000 1.0000 -0.0000
vn -1.0000 -0.0000 -0.0000
vn -0.0000 -1.0000 -0.0000
vn 1.0000 -0.0000 -0.0000
vn -0.0000 -0.0000 -1.0000
vn -0.0000 -0.0000 1.0000
vt 0.625000 0.500000
vt 0.375000 0.500000
vt 0.625000 0.750000
vt 0.375000 0.750000
vt 0.625000 0.250000
vt 0.875000 0.500000
vt 0.375000 0.250000
vt 0.125000 0.500000
vt 0.625000 0.000000
vt 0.875000 0.750000
vt 0.125000 0.750000
vt 0.375000 0.000000
vt 0.375000 0.000000
vt 0.125000 0.750000
vt 0.625000 0.000000
vt 0.625000 0.750000
vt 0.375000 0.750000
vt 0.375000 0.500000
vt 0.375000 0.250000
vt 0.125000 0.500000
vt 0.625000 0.500000
vt 0.625000 0.250000
vt 0.875000 0.500000
vt 0.625000 0.750000
vt 0.625000 0.000000
vt 0.875000 0.750000
vt 0.125000 0.750000
vt 0.375000 0.000000
vt 0.625000 0.000000
vt 0.625000 0.750000
vt 0.375000 0.750000
vt 0.375000 0.500000
vt 0.375000 0.250000
vt 0.125000 0.500000
vt 0.625000 0.500000
vt 0.625000 0.250000
vt 0.875000 0.500000
vt 0.625000 0.750000
vt 0.625000 0.000000
vt 0.875000 0.750000
vt 0.375000 0.000000
vt 0.125000 0.750000
vt 0.625000 0.000000
vt 0.875000 0.750000
vt 0.625000 0.750000
vt 0.375000 0.750000
vt 0.375000 0.500000
vt 0.375000 0.250000
vt 0.125000 0.500000
vt 0.625000 0.500000
vt 0.625000 0.250000
vt 0.375000 0.000000
vt 0.375000 1.000000
vt 0.125000 0.750000
vt 0.625000 0.000000
vt 0.625000 1.000000
vt 0.625000 0.750000
vt 0.375000 0.750000
vt 0.625000 0.750000
vt 0.875000 0.750000
vt 0.625000 0.500000
vt 0.875000 0.500000
vt 0.875000 0.500000
vt 0.625000 0.500000
vt 0.625000 0.750000
vt 0.875000 0.750000
vt 0.875000 0.500000
vt 0.625000 0.500000
vt 0.625000 0.750000
vt 0.875000 0.750000
vt 0.625000 0.750000
vt 0.625000 0.000000
vt 0.625000 1.000000
vt 0.625000 0.750000
vt 0.625000 0.000000
vt 0.875000 0.750000
vt 0.625000 0.500000
vt 0.625000 0.750000
vt 0.625000 0.500000
vt 0.625000 0.500000
vt 0.625000 0.750000
vt 0.625000 0.750000
vt 0.625000 0.500000
vt 0.625000 0.750000
vt 0.625000 0.500000
vt 0.625000 0.500000
vt 0.625000 0.750000
vt 0.625000 0.750000
vt 0.625000 0.750000
vt 0.625000 0.000000
vt 0.625000 1.000000
vt 0.625000 0.750000
vt 0.625000 0.000000
vt 0.625000 1.000000
vt 0.875000 0.750000
vt 0.625000 0.500000
vt 0.625000 0.750000
vt 0.625000 0.500000
vt 0.625000 0.500000
vt 0.625000 0.750000
vt 0.625000 0.750000
vt 0.625000 0.500000
vt 0.625000 0.750000
vt 0.625000 0.500000
vt 0.625000 0.500000
vt 0.625000 0.750000
vt 0.625000 0.750000
vt 0.625000 0.750000
vt 0.625000 0.750000
vt 0.625000 0.250000
vt 0.625000 0.500000
vt 0.625000 0.250000
vt 0.875000 0.500000
vt 0.625000 0.500000
vt 0.625000 0.500000
vt 0.625000 0.500000
vt 0.625000 0.500000
vt 0.625000 0.500000
vt 0.625000 0.000000
vt 0.875000 0.750000
vt 0.625000 0.250000
vt 0.875000 0.500000
vt 0.625000 0.250000
vt 0.625000 0.250000
vt 0.875000 0.500000
vt 0.625000 0.000000
vt 0.625000 1.000000
vt 0.625000 0.000000
vt 0.875000 0.750000
vt 0.625000 0.000000
vt 0.875000 0.750000
vt 0.625000 0.250000
vt 0.875000 0.500000
vt 0.625000 0.250000
vt 0.875000 0.500000
vt 0.625000 0.250000
vt 0.875000 0.500000
vt 0.625000 0.000000
vt 0.875000 0.750000
vt 0.625000 0.000000
vt 0.875000 0.750000
vt 0.625000 0.000000
vt 0.625000 1.000000
vt 0.625000 0.000000
vt 0.875000 0.750000
vt 0.625000 0.250000
vt 0.625000 0.250000
vt 0.875000 0.500000
s 0
usemtl Material
f 51/69/1 52/70/1 56/76/1 55/74/1
f 8/11/1 4/4/1 12/17/1 9/14/1
f 8/12/2 7/9/2 5/5/2 6/7/2
f 6/8/3 2/2/3 4/4/3 8/11/3
f 2/2/4 1/1/4 3/3/4 4/4/4
f 11/16/1 3/3/1 17/24/1 21/30/1
f 10/15/1 9/13/1 19/28/1 20/29/1
f 6/7/1 5/5/1 16/22/1 14/19/1
f 4/4/1 3/3/1 11/16/1 12/17/1
f 7/9/1 8/12/1 9/13/1 10/15/1
f 22/31/1 21/30/1 31/45/1 32/46/1
f 18/25/1 20/29/1 30/43/1 28/39/1
f 14/19/1 16/22/1 26/36/1 24/33/1
f 1/1/1 2/2/1 13/18/1 15/21/1
f 3/3/1 7/10/1 18/26/1 17/24/1
f 12/17/1 11/16/1 21/30/1 22/31/1
f 5/6/1 1/1/1 15/21/1 16/23/1
f 7/9/1 10/15/1 20/29/1 18/25/1
f 2/2/1 6/8/1 14/20/1 13/18/1
f 9/14/1 12/17/1 22/31/1 19/27/1
f 25/35/4 23/32/4 33/47/4 35/50/4
f 30/43/2 29/41/2 37/52/2 38/55/2
f 27/38/1 28/40/1 30/44/1 31/45/1
f 17/24/1 18/26/1 28/40/1 27/38/1
f 21/30/1 17/24/1 27/38/1 31/45/1
f 13/18/1 14/20/1 24/34/1 23/32/1
f 16/23/1 15/21/1 25/35/1 26/37/1
f 15/21/1 13/18/1 23/32/1 25/35/1
f 19/27/1 22/31/1 32/46/1 29/42/1
f 20/29/1 19/28/1 29/41/1 30/43/1
f 34/48/5 36/51/5 35/50/5 33/47/5
f 59/79/2 65/85/2 91/115/2 92/116/2
f 24/33/2 26/36/2 36/51/2 34/48/2
f 23/32/3 24/34/3 34/49/3 33/47/3
f 40/58/6 39/57/6 38/56/6 37/53/6
f 29/42/3 32/46/3 40/58/3 37/54/3
f 32/46/4 31/45/4 39/57/4 40/58/4
f 89/112/5 87/110/5 109/146/5 110/147/5
f 43/61/1 44/62/1 42/60/1 41/59/1
f 45/63/1 46/64/1 50/68/1 49/67/1
f 47/65/1 48/66/1 52/70/1 51/69/1
f 36/51/3 26/36/3 98/124/3 97/123/3
f 7/10/6 3/3/6 41/59/6 42/60/6
f 31/45/5 30/44/5 48/66/5 47/65/5
f 26/37/6 25/35/6 46/64/6 45/63/6
f 1/1/5 5/6/5 44/62/5 43/61/5
f 31/45/1 47/65/1 67/87/1 61/81/1
f 3/3/1 1/1/1 57/77/1 58/78/1
f 41/59/1 3/3/1 58/78/1 64/84/1
f 30/43/3 38/55/3 99/126/3 100/128/3
f 25/35/1 35/50/1 59/79/1 60/80/1
f 38/56/3 39/57/3 53/71/3 54/73/3
f 56/75/1 54/72/1 70/90/1 72/93/1
f 54/72/6 56/75/6 108/144/6 107/142/6
f 66/86/6 60/80/6 76/99/6 82/105/6
f 69/89/3 62/82/3 78/101/3 85/108/3
f 62/82/3 61/81/3 77/100/3 78/101/3
f 70/91/6 69/89/6 71/92/6 72/94/6
f 61/81/5 67/87/5 83/106/5 77/100/5
f 46/64/1 25/35/1 60/80/1 66/86/1
f 39/57/1 31/45/1 61/81/1 62/82/1
f 51/69/1 55/74/1 71/92/1 68/88/1
f 50/68/1 46/64/1 66/86/1 65/85/1
f 35/50/1 50/68/1 65/85/1 59/79/1
f 53/71/1 39/57/1 62/82/1 69/89/1
f 1/1/1 43/61/1 63/83/1 57/77/1
f 43/61/1 41/59/1 64/84/1 63/83/1
f 54/73/1 53/71/1 69/89/1 70/91/1
f 55/74/1 56/76/1 72/95/1 71/92/1
f 47/65/1 51/69/1 68/88/1 67/87/1
f 78/101/4 77/100/4 83/106/4 84/107/4
f 74/97/4 73/96/4 79/102/4 80/103/4
f 76/99/4 75/98/4 81/104/4 82/105/4
f 78/101/4 84/107/4 86/109/4 85/108/4
f 63/83/1 64/84/1 80/103/1 79/102/1
f 57/77/5 63/83/5 79/102/5 73/96/5
f 65/85/1 66/86/1 82/105/1 81/104/1
f 67/87/1 68/88/1 84/107/1 83/106/1
f 35/50/3 36/51/3 87/110/3 88/111/3
f 58/78/3 57/77/3 73/96/3 74/97/3
f 71/92/6 69/89/6 85/108/6 86/109/6
f 64/84/6 58/78/6 74/97/6 80/103/6
f 60/80/3 59/79/3 75/98/3 76/99/3
f 68/88/1 71/92/1 86/109/1 84/107/1
f 88/111/5 87/110/5 89/112/5 90/114/5
f 92/116/5 91/115/5 93/117/5 94/118/5
f 87/110/3 36/51/3 97/123/3 109/146/3
f 75/98/3 59/79/3 92/116/3 94/118/3
f 65/85/1 81/104/1 93/117/1 91/115/1
f 49/67/1 50/68/1 90/114/1 89/113/1
f 81/104/4 75/98/4 94/118/4 93/117/4
f 50/68/4 35/50/4 88/111/4 90/114/4
f 100/128/2 99/126/2 105/138/2 106/140/2
f 96/121/2 95/119/2 101/130/2 102/132/2
f 97/123/2 98/124/2 104/136/2 103/134/2
f 105/138/2 99/126/2 107/142/2 108/144/2
f 97/123/2 103/134/2 110/147/2 109/146/2
f 48/66/5 30/44/5 100/129/5 106/141/5
f 56/76/1 52/70/1 105/139/1 108/145/1
f 5/5/3 7/9/3 95/119/3 96/121/3
f 26/37/6 45/63/6 104/137/6 98/125/6
f 49/67/1 89/113/1 110/148/1 103/135/1
f 45/63/1 49/67/1 103/135/1 104/137/1
f 38/56/3 54/73/3 107/143/3 99/127/3
f 42/60/1 44/62/1 102/133/1 101/131/1
f 7/10/6 42/60/6 101/131/6 95/120/6
f 52/70/1 48/66/1 106/141/1 105/139/1
f 44/62/5 5/6/5 96/122/5 102/133/5
